<svg width="14" height="14" viewBox="0 0 14 14" fill="none" xmlns="http://www.w3.org/2000/svg">
<path d="M5.91885 8.02681C6.73065 8.85034 7.7129 9.48615 8.79662 9.88959L10.2627 8.72292C10.3062 8.69299 10.3577 8.67696 10.4105 8.67696C10.4633 8.67696 10.5148 8.69299 10.5583 8.72292L13.2805 10.4768C13.3839 10.5389 13.4713 10.6243 13.5361 10.726C13.6008 10.8278 13.6409 10.9432 13.6534 11.0631C13.6658 11.1831 13.6502 11.3042 13.6078 11.4171C13.5653 11.53 13.4972 11.6314 13.4088 11.7135L12.1333 12.9735C11.9506 13.154 11.7261 13.2864 11.4798 13.359C11.2335 13.4316 10.973 13.4421 10.7216 13.3896C8.21415 12.8717 5.90295 11.6588 4.05218 9.88959C2.24248 8.10274 0.990175 5.82914 0.447179 3.34459C0.393539 3.09711 0.404734 2.83998 0.479681 2.5981C0.554628 2.35623 0.690785 2.13782 0.874957 1.96403L2.19718 0.688476C2.279 0.604393 2.37878 0.539911 2.48906 0.499856C2.59933 0.459802 2.71724 0.445214 2.83395 0.457184C2.95066 0.469154 3.06315 0.507373 3.163 0.568978C3.26285 0.630584 3.34746 0.713979 3.41051 0.81292L5.22273 3.50014C5.25399 3.54234 5.27086 3.59346 5.27086 3.64598C5.27086 3.69849 5.25399 3.74961 5.22273 3.79181L4.02885 5.22681C4.44324 6.28884 5.08885 7.24531 5.91885 8.02681Z" fill="currentColor"/>
</svg>
