<svg width="41" height="41" viewBox="0 0 41 41" fill="none" xmlns="http://www.w3.org/2000/svg">
<path d="M20.5001 0.819946C9.63097 0.819946 0.820068 9.63085 0.820068 20.4999C0.820068 31.369 9.63097 40.1799 20.5001 40.1799C31.3692 40.1799 40.1801 31.369 40.1801 20.4999C40.1801 9.63085 31.3692 0.819946 20.5001 0.819946ZM28.0687 23.0235C28.0687 23.0235 29.8091 24.7414 30.2376 25.5388C30.2499 25.5552 30.256 25.5716 30.2601 25.5798C30.4344 25.873 30.4754 26.1005 30.3893 26.2707C30.2458 26.5536 29.7538 26.693 29.5857 26.7053H26.5107C26.2975 26.7053 25.8506 26.6499 25.3094 26.2768C24.8932 25.9857 24.4832 25.5081 24.0835 25.0427C23.4869 24.3498 22.9703 23.7512 22.4496 23.7512C22.3835 23.7511 22.3178 23.7615 22.2549 23.782C21.8613 23.9091 21.357 24.4708 21.357 25.9673C21.357 26.4347 20.988 26.7032 20.7276 26.7032H19.3193C18.8396 26.7032 16.3406 26.5351 14.1266 24.2002C11.4165 21.3404 8.97702 15.6045 8.95652 15.5512C8.80277 15.1802 9.12052 14.9813 9.46697 14.9813H12.5727C12.9868 14.9813 13.1221 15.2335 13.2164 15.4569C13.3271 15.7173 13.733 16.7525 14.3993 17.9169C15.4796 19.8152 16.1418 20.586 16.6727 20.586C16.7723 20.5849 16.8701 20.5595 16.9577 20.5122C17.6506 20.1268 17.5214 17.6566 17.4907 17.1441C17.4907 17.0477 17.4886 16.0391 17.134 15.5553C16.8798 15.2048 16.4472 15.0715 16.1848 15.0223C16.291 14.8758 16.4309 14.757 16.5928 14.6759C17.0684 14.4381 17.9253 14.4032 18.776 14.4032H19.2496C20.1721 14.4155 20.4099 14.475 20.744 14.559C21.4205 14.721 21.4349 15.1576 21.3754 16.6521C21.357 17.0764 21.3385 17.5561 21.3385 18.1219C21.3385 18.2449 21.3324 18.3761 21.3324 18.5155C21.3119 19.2761 21.2873 20.1391 21.8244 20.4938C21.8944 20.5377 21.9754 20.5612 22.0581 20.5614C22.2446 20.5614 22.8063 20.5614 24.3274 17.9518C24.7965 17.1118 25.2042 16.239 25.5472 15.3401C25.5779 15.2868 25.6681 15.1228 25.7747 15.0592C25.8534 15.0191 25.9406 14.9987 26.0289 14.9998H29.68C30.0777 14.9998 30.3503 15.0592 30.4016 15.213C30.4918 15.4569 30.3852 16.2011 28.7185 18.4581L27.9744 19.4401C26.4635 21.4204 26.4635 21.5208 28.0687 23.0235Z" fill="currentColor"/>
</svg>
